<?xml version="1.0" encoding="utf-8"?>
<!-- Generator: Adobe Illustrator 27.5.0, SVG Export Plug-In . SVG Version: 6.00 Build 0)  -->
<svg version="1.1" id="Layer_1" xmlns="http://www.w3.org/2000/svg" xmlns:xlink="http://www.w3.org/1999/xlink" x="0px" y="0px"
	 viewBox="0 0 410.9 109.9" style="enable-background:new 0 0 410.9 109.9;" xml:space="preserve">
<g>
	<path style="fill-rule:evenodd;clip-rule:evenodd;fill:#113984;" d="M56.4,1.6c13.1,0,25.1,7.1,23.5,24.8c-2,21-13.2,32.6-31,32.7
		H33.4c-2.2,0-3.3,1.8-3.9,5.6l-3,19.1c-0.5,2.9-1.9,4.3-4.1,4.3H8c-2.3,0-3.1-1.5-2.6-4.8L17.3,6.8c0.6-3.8,2-5.2,4.6-5.2H56.4
		L56.4,1.6z M32.9,42.6l11.8,0C52,42.3,56.9,37.2,57.4,28c0.3-5.7-3.5-9.7-9.6-9.7l-11.1,0.1L32.9,42.6L32.9,42.6z M119.1,82.1
		c1.3-1.2,2.7-1.8,2.5-0.3l-0.5,3.5c-0.2,1.8,0.5,2.8,2.2,2.8h12.8c2.2,0,3.2-0.9,3.7-4.2l7.9-49.6c0.4-2.5-0.2-3.7-2.1-3.7h-14.1
		c-1.3,0-1.9,0.7-2.2,2.7l-0.5,3.1c-0.3,1.6-1,1.9-1.7,0.3c-2.4-5.7-8.5-8.2-17-8C90.4,29,77,44,75.6,63.3
		c-1.1,14.9,9.6,26.6,23.6,26.6C109.4,89.8,114,86.8,119.1,82.1L119.1,82.1z M108.4,74.5c-8.5,0-14.4-6.8-13.2-15.1
		c1.2-8.3,9.2-15.1,17.7-15.1s14.4,6.8,13.2,15.1C124.9,67.7,116.9,74.5,108.4,74.5L108.4,74.5z M172.9,30.5h-13
		c-2.7,0-3.8,2-2.9,4.5l16.1,47.3l-15.9,22.5c-1.3,1.9-0.3,3.6,1.6,3.6h14.6c2.2,0,3.2-0.6,4.3-2.1L227.4,35
		c1.5-2.2,0.8-4.5-1.7-4.5l-13.8,0c-2.4,0-3.3,0.9-4.7,2.9l-20.7,30l-9.2-30.1C176.7,31.5,175.4,30.5,172.9,30.5z"/>
	<path style="fill-rule:evenodd;clip-rule:evenodd;fill:#009EE3;" d="M279.1,1.6c13.1,0,25.1,7.1,23.5,24.8c-2,21-13.2,32.6-31,32.7
		h-15.5c-2.2,0-3.3,1.8-3.9,5.6l-3,19.1c-0.5,2.9-1.9,4.3-4.1,4.3h-14.4c-2.3,0-3.1-1.5-2.6-4.8L240,6.8c0.6-3.8,2-5.2,4.6-5.2
		H279.1L279.1,1.6z M255.6,42.6l11.8,0c7.3-0.3,12.2-5.4,12.7-14.5c0.3-5.7-3.5-9.7-9.6-9.7l-11.1,0.1L255.6,42.6L255.6,42.6z
		 M341.8,82.1c1.3-1.2,2.7-1.8,2.5-0.3l-0.5,3.5c-0.2,1.8,0.5,2.8,2.2,2.8h12.8c2.2,0,3.2-0.9,3.7-4.2l7.9-49.6
		c0.4-2.5-0.2-3.7-2.1-3.7h-14.1c-1.3,0-1.9,0.7-2.2,2.7l-0.5,3.1c-0.3,1.6-1,1.9-1.7,0.3c-2.4-5.7-8.5-8.2-17-8
		C313,29,299.7,44,298.3,63.3c-1.1,14.9,9.6,26.6,23.6,26.6C332.1,89.8,336.6,86.8,341.8,82.1L341.8,82.1z M331.1,74.5
		c-8.5,0-14.4-6.8-13.2-15.1c1.2-8.3,9.2-15.1,17.7-15.1c8.5,0,14.4,6.8,13.2,15.1C347.5,67.7,339.6,74.5,331.1,74.5L331.1,74.5z
		 M390.2,88.3h-14.8c-1.2,0-2-0.9-1.8-2l13-82.4c0.2-1.1,1.3-2,2.5-2h14.8c1.2,0,2,0.9,1.8,2l-13,82.4
		C392.5,87.3,391.4,88.3,390.2,88.3z"/>
</g>
</svg>
