<?xml version="1.0" encoding="utf-8"?>
<!-- Generator: Adobe Illustrator 27.5.0, SVG Export Plug-In . SVG Version: 6.00 Build 0)  -->
<svg version="1.1" id="Layer_1" xmlns="http://www.w3.org/2000/svg" xmlns:xlink="http://www.w3.org/1999/xlink" x="0px" y="0px"
	 viewBox="0 0 500 500" style="enable-background:new 0 0 500 500;" xml:space="preserve">
<style type="text/css">
	.st0{fill:#212529;}
</style>
<g id="Outline">
	<g>
		<path class="st0" d="M478.3,492.9C320.8,335.4,320.8,335.4,320.7,335.3l7.3-7.1l7.2-7.2c0.7,0.7,155.9,155.9,157.5,157.5
			L478.3,492.9z"/>
	</g>
	<g>
		<path class="st0" d="M200.3,391.8c-25.3,0-50-4.9-73.3-14.6c-23.4-9.7-44.3-23.7-62.2-41.5c-17.9-17.9-31.9-38.8-41.5-62.1
			c-9.7-23.4-14.6-48-14.6-73.3s4.9-50,14.6-73.3c9.7-23.4,23.7-44.3,41.5-62.2c17.9-17.9,38.8-31.9,62.1-41.5
			c23.4-9.7,48-14.6,73.3-14.6c25.3,0,50,4.9,73.3,14.6c23.4,9.7,44.3,23.7,62.2,41.5c17.9,17.9,31.9,38.8,41.5,62.1
			c9.7,23.4,14.6,48,14.6,73.3s-4.9,50-14.6,73.3c-9.7,23.4-23.7,44.3-41.5,62.1c-17.9,17.9-38.8,31.9-62.1,41.5
			C250.2,386.8,225.6,391.8,200.3,391.8z M200.3,28.9c-45.8,0-88.8,17.8-121.1,50.1c-32.3,32.3-50.2,75.3-50.2,121.1
			s17.8,88.8,50.1,121.1c32.3,32.3,75.3,50.2,121.1,50.2c45.8,0,88.8-17.8,121.1-50.1l0,0c32.3-32.3,50.1-75.3,50.1-121.1
			s-17.8-88.8-50.1-121.1C289,46.8,246,28.9,200.3,28.9z"/>
	</g>
</g>
</svg>
