<?xml version="1.0" encoding="utf-8"?>
<!-- Generator: Adobe Illustrator 27.5.0, SVG Export Plug-In . SVG Version: 6.00 Build 0)  -->
<svg version="1.1" id="Layer_1" xmlns:xodm="http://www.corel.com/coreldraw/odm/2003"
	 xmlns="http://www.w3.org/2000/svg" xmlns:xlink="http://www.w3.org/1999/xlink" x="0px" y="0px" viewBox="0 0 500 500"
	 style="enable-background:new 0 0 500 500;" xml:space="preserve">
<style type="text/css">
	.st0{fill:#212529;}
</style>
<g id="Stroke">
	<g>
		<path class="st0" d="M250,199.9c-29.1,0-57.2-10.6-79.1-29.7c-21.9-19.2-36-45.7-39.9-74.5c-0.8-5.8,3.3-11.1,9.1-11.8
			c5.8-0.8,11.1,3.3,11.8,9.1c3.1,23.8,14.8,45.6,32.9,61.4c18,15.8,41.2,24.5,65.2,24.5s47.1-8.7,65.2-24.5
			c18-15.8,29.7-37.6,32.9-61.4c0.8-5.8,6.1-9.8,11.8-9.1c5.8,0.8,9.8,6.1,9.1,11.8c-3.8,28.9-18,55.3-39.9,74.5
			S279.1,199.9,250,199.9z"/>
	</g>
	<g>
		<path class="st0" d="M422.8,484.3H77.2c-10.6,0-20.6-2-29.7-6s-17.4-10-24.6-17.7c-7.2-7.8-12.5-16.5-15.7-25.9
			s-4.5-19.5-3.6-30.1L29.5,83.5C31,65,39.3,47.8,53,35.2c13.6-12.6,31.4-19.5,50-19.5h294c18.6,0,36.4,6.9,50.1,19.5
			c13.6,12.6,22,29.8,23.5,48.4l25.9,321.1c0.8,10.6-0.4,20.7-3.6,30.1s-8.5,18.1-15.7,25.9s-15.4,13.8-24.6,17.7
			C443.4,482.3,433.4,484.3,422.8,484.3z M103,36.8c-13.3,0-26,4.9-35.8,13.9c-9.7,9-15.7,21.3-16.8,34.5L24.6,406.3
			c-0.6,7.6,0.2,14.9,2.5,21.5s6.1,12.9,11.3,18.5s11.1,9.9,17.5,12.7c6.5,2.8,13.6,4.3,21.2,4.3h345.7c7.6,0,14.8-1.4,21.2-4.3
			c6.4-2.8,12.3-7.1,17.5-12.7s9-11.8,11.3-18.5c2.3-6.6,3.1-13.9,2.5-21.5L449.5,85.2c-1.1-13.3-7-25.5-16.8-34.5
			c-9.7-9-22.4-13.9-35.8-13.9C396.9,36.8,103,36.8,103,36.8z"/>
	</g>
</g>
</svg>
